PathFileType	4	(X/Y/Z)	/Users/niels/Desktop/University/Third Semester/Perception and Action/Exam/Gymnastics Motion Tracking/Code for Gym Tracking/Analyzed Data/Webcam_Backflip/id1_9_trajectory_Sports2D/id1_9_trajectory_Sports2D_px_person00.trc
DataRate	CameraRate	NumFrames	NumMarkers	Units	OrigDataRate	OrigDataStartFrame	OrigNumFrames
29.714285714285715	29.714285714285715	11	22	m	29.714285714285715	52	105
Frame#	Time	Hip			RHip			RKnee			RAnkle			RBigToe			RSmallToe			RHeel			LHip			LKnee			LAnkle			LBigToe			LSmallToe			LHeel			Neck			Head			Nose			RShoulder			RElbow			RWrist			LShoulder			LElbow			LWrist		
		X1	Y1	Z1	X2	Y2	Z2	X3	Y3	Z3	X4	Y4	Z4	X5	Y5	Z5	X6	Y6	Z6	X7	Y7	Z7	X8	Y8	Z8	X9	Y9	Z9	X10	Y10	Z10	X11	Y11	Z11	X12	Y12	Z12	X13	Y13	Z13	X14	Y14	Z14	X15	Y15	Z15	X16	Y16	Z16	X17	Y17	Z17	X18	Y18	Z18	X19	Y19	Z19	X20	Y20	Z20	X21	Y21	Z21	X22	Y22	Z22
52	1.75	1.360116283340996	-0.6662722780989337	0.0	1.3619054690166361	-0.6615050604210785	0.0	1.373362105366938	-0.7787818468865589	0.0	1.4187799139908555	-0.8820031461554626	0.0	1.3889805277464953	-0.8967268927172395	0.0	1.401966037062206	-0.8923145487089231	0.0	1.4306668173048598	-0.8980006422656104	0.0	1.3619769020400578	-0.6643628038790442	0.0	1.2860933226513522	-0.756806565025449	0.0	1.2771455634824533	-0.884978039369966	0.0	1.2363976613336645	-0.8932203303521384	0.0	1.2427805763278232	-0.9014188618724895	0.0	1.2832894820369183	-0.900749102629741	0.0	1.3317020240789532	-0.5048209766279672	0.0	1.303325818776399	-0.42862479897968314	0.0	1.2924821076140713	-0.4713410261196004	0.0	1.327467704278309	-0.5135209355116223	0.0	1.3585493340137638	-0.4944200100008953	0.0	1.3600145617709565	-0.458111525249536	0.0	1.350544418137475	-0.5166890119925536	0.0	1.3991239817895995	-0.5413452366470519	0.0	1.4332977352814664	-0.5450889148753281	0.0
53	1.783653846153846	1.3662282437990196	-0.6867576229463952	0.0	1.367020771665825	-0.6832032780334831	0.0	1.3750337496252931	-0.796917381197507	0.0	1.4224610858636453	-0.8982388327846593	0.0	1.3916307545552256	-0.9105802914566664	0.0	1.405783225548191	-0.9053559332609891	0.0	1.4346656169974943	-0.9129110037513756	0.0	1.3679012893169447	-0.6853421082001662	0.0	1.2897443638096853	-0.772968160347353	0.0	1.2809338480795116	-0.899011707687845	0.0	1.2391014832303517	-0.9045442885942302	0.0	1.247199137968741	-0.9129667792016568	0.0	1.286809767600338	-0.9137141991832017	0.0	1.335738551616301	-0.5249369778110032	0.0	1.3058779170148862	-0.4507880938160094	0.0	1.2947534085445631	-0.49356619188856554	0.0	1.3310875773557334	-0.5379087370302243	0.0	1.3630414718665633	-0.5434614137050271	0.0	1.358021179378997	-0.5206765329688656	0.0	1.35549240958737	-0.537511475449801	0.0	1.4016419139993108	-0.5706267288567881	0.0	1.4308729482601659	-0.5848084137482462	0.0
54	1.8173076923076923	1.3704218525893628	-0.6989042915548993	0.0	1.3704227462926892	-0.6966349666832063	0.0	1.3762371214586329	-0.8072362931930546	0.0	1.4251977944771845	-0.9074027932559318	0.0	1.3932928613119637	-0.9177323907946762	0.0	1.407922911925661	-0.9121271726481965	0.0	1.4375930476686276	-0.9209855655940469	0.0	1.3719989214125003	-0.6981796702840601	0.0	1.2927859686115715	-0.7811539326939337	0.0	1.2829679716923328	-0.9052777680940604	0.0	1.2396538612623553	-0.9084078456974173	0.0	1.2488646812405593	-0.9170608202164428	0.0	1.2885946502733274	-0.9191965564226801	0.0	1.339414646977018	-0.536974728497594	0.0	1.3080591284757865	-0.46471584993266873	0.0	1.2973069434129982	-0.507808041398519	0.0	1.3340540403578884	-0.5540081807072005	0.0	1.3643542959728052	-0.5840365881289333	0.0	1.3547373040911774	-0.5812937479981015	0.0	1.3605121228565853	-0.5505881516469334	0.0	1.4020667317052478	-0.5945442719981732	0.0	1.4254124756364361	-0.6231139218088471	0.0
55	1.8509615384615383	1.3725921744096563	-0.7017782764829821	0.0	1.3717509778413182	-0.7006727468875207	0.0	1.377406449267924	-0.8091365513030117	0.0	1.427183555188457	-0.9088802554294408	0.0	1.3942647461786783	-0.9181063873096403	0.0	1.4087504915592204	-0.9125944807231441	0.0	1.439702867212112	-0.9217861816823913	0.0	1.3744168751812367	-0.7017435567408962	0.0	1.2952707336505647	-0.7808809512467976	0.0	1.2836981246421109	-0.9037244468649498	0.0	1.238340047645491	-0.90497281396647	0.0	1.24794774258127	-0.9138422918119476	0.0	1.28914768279417	-0.9173436893364463	0.0	1.342800348497363	-0.540203972279476	0.0	1.310264338638493	-0.4691830473114983	0.0	1.3004411989604896	-0.5127928296315248	0.0	1.3358781798151067	-0.560671664760714	0.0	1.3619724781789062	-0.610756261600853	0.0	1.349876133552242	-0.6306940812997739	0.0	1.3658692576410054	-0.5551735570799062	0.0	1.4010832167174625	-0.610212880619922	0.0	1.4174734643411553	-0.6541275382948547	0.0
56	1.8846153846153846	1.3730764776303168	-0.6956625229562367	0.0	1.3710530369368488	-0.6954416195919434	0.0	1.3786694515905882	-0.8029983089854065	0.0	1.4285421902216286	-0.9027939085062152	0.0	1.3948507908113823	-0.9122388270628653	0.0	1.4086960261247905	-0.907090951809835	0.0	1.4411843654567065	-0.9154884327280588	0.0	1.3757327876836691	-0.6960916841561982	0.0	1.2974712352155824	-0.7730054386426268	0.0	1.2836823836625086	-0.8952070787416627	0.0	1.236010309173651	-0.8953679492449154	0.0	1.2454940526337674	-0.904374844155211	0.0	1.2890407094194167	-0.9090262397957622	0.0	1.3458212301803991	-0.5349462676943555	0.0	1.3127633466055975	-0.46435803393246733	0.0	1.3042136967005933	-0.5085880177223797	0.0	1.3361626580257793	-0.5580201668812083	0.0	1.3561332599815	-0.6217262816071105	0.0	1.3428962623326612	-0.6611859319691669	0.0	1.3714888975954826	-0.551375259603297	0.0	1.399547839028347	-0.6159370714086662	0.0	1.4076820686205878	-0.6729916319337454	0.0
57	1.9182692307692306	1.3725299151850987	-0.6819501558788832	0.0	1.3687272299363642	-0.6823294816745371	0.0	1.379805483977148	-0.7900793285977439	0.0	1.4292699989377844	-0.8901006415186331	0.0	1.3950590460892467	-0.901133217534948	0.0	1.40790256266844	-0.8963332237868141	0.0	1.4420638131538515	-0.902973092576342	0.0	1.3767904928860821	-0.6825374963656579	0.0	1.2998003252684045	-0.7594069380379874	0.0	1.283433927525043	-0.8814080482005001	0.0	1.2337269520361895	-0.8814746641279023	0.0	1.242936687481493	-0.8904564043234504	0.0	1.2887626972350161	-0.8957452748922371	0.0	1.3483339691276148	-0.5224589510435631	0.0	1.3156429271644052	-0.45157769028338784	0.0	1.308486137707414	-0.496472177858841	0.0	1.3348342046956652	-0.5472431235349887	0.0	1.3475961152244034	-0.6181585297608235	0.0	1.3334590463655178	-0.6698764950773372	0.0	1.3770349528674963	-0.54009301463273	0.0	1.3983456616014092	-0.6115511147221887	0.0	1.396794151850997	-0.6774372130406474	0.0
58	1.9519230769230769	1.3715592865667992	-0.6627570458953831	0.0	1.365278182901563	-0.6635710087323098	0.0	1.380347170441432	-0.7722649333978672	0.0	1.4292326684662355	-0.8725222783257441	0.0	1.394588891835267	-0.8863388884009655	0.0	1.406250820668348	-0.8816827129320299	0.0	1.4422043286093993	-0.885823373398526	0.0	1.3782269318976654	-0.6632783174427033	0.0	1.3026477204598983	-0.7424013637186346	0.0	1.2833933886591227	-0.8644649235695009	0.0	1.2323799812633947	-0.8654038202323031	0.0	1.2415213328699455	-0.8741492218613939	0.0	1.2886910480003522	-0.8794176139465768	0.0	1.3502317632263892	-0.5046406368430715	0.0	1.3188132371692358	-0.43297087574581483	0.0	1.3129841521706511	-0.4785289589524178	0.0	1.3322022597485894	-0.5302063195721181	0.0	1.337383008939607	-0.6031411103118434	0.0	1.3219220754976468	-0.6588269199879386	0.0	1.3821127383915055	-0.52290795970744	0.0	1.3981318659262116	-0.5984054601526293	0.0	1.38569008538473	-0.6682079237368757	0.0
59	1.985576923076923	1.3704021758962603	-0.6404578464605828	0.0	1.3610922171578277	-0.6416381212630923	0.0	1.3798343998461398	-0.7517282335168772	0.0	1.4281763428673724	-0.8522731153526677	0.0	1.3931420907887222	-0.8698101338692634	0.0	1.4036564985049143	-0.8650581142198883	0.0	1.4413476190096997	-0.8660760446743335	0.0	1.380062797538292	-0.6408195619450546	0.0	1.3062205885734854	-0.7241598947213901	0.0	1.284004978238969	-0.846466883971265	0.0	1.2326460900717737	-0.8490195598460726	0.0	1.2421182852927808	-0.8573094969606515	0.0	1.2892086150405346	-0.8619949201590265	0.0	1.3515108305718937	-0.483673904410616	0.0	1.3220969887446532	-0.41101397495282954	0.0	1.3173751136297611	-0.4572117559376173	0.0	1.3288047031990107	-0.5091049255836662	0.0	1.3265071941131408	-0.5805832541592034	0.0	1.3092043683645915	-0.6333172290824289	0.0	1.3864531873989894	-0.5018879985264542	0.0	1.3991477219736068	-0.5789785266590929	0.0	1.375218993511679	-0.6483072378509335	0.0
60	2.019230769230769	1.3689901288497313	-0.6173378046904643	0.0	1.3564678476291756	-0.6187682963894318	0.0	1.3780180383344838	-0.7305587797769969	0.0	1.4257498552620873	-0.8316377352412918	0.0	1.3906406063517842	-0.8535080082318561	0.0	1.4001519887277185	-0.848524679849239	0.0	1.4391329397023354	-0.8457892173364481	0.0	1.3818363595037444	-0.6175056280366508	0.0	1.310476765102368	-0.7063709482694478	0.0	1.2857927011948107	-0.8291036557592558	0.0	1.2350663290130592	-0.8338233996996136	0.0	1.2452679021955744	-0.8414337084353858	0.0	1.2908640507117832	-0.8450970921347408	0.0	1.3522587545410911	-0.4617181016836548	0.0	1.3253702920752426	-0.3880515254257324	0.0	1.3213821385258413	-0.43491120008910306	0.0	1.3251867261618686	-0.486182006081204	0.0	1.3157361734737092	-0.5544006655843119	0.0	1.2961669179504762	-0.5998765524685777	0.0	1.3898998817168422	-0.47929007115808264	0.0	1.4012233179951572	-0.5562157870001279	0.0	1.3660229294855224	-0.6217621962717096	0.0
61	2.0528846153846154	1.3672477177950488	-0.5953563279684363	0.0	1.3517370176549006	-0.5967673975561257	0.0	1.3748717070872054	-0.7104540568925692	0.0	1.4215577086502298	-0.8125707742475968	0.0	1.3870559163679381	-0.8390405726868118	0.0	1.395624144916241	-0.833837177638611	0.0	1.4351100934429968	-0.8267382718954196	0.0	1.3830720836524606	-0.5952654361306574	0.0	1.3151736052983285	-0.6901691302009786	0.0	1.2893487071544056	-0.8135421006891792	0.0	1.2400707441053045	-0.8209861876616367	0.0	1.2512697574299918	-0.8276966641674385	0.0	1.2943884925550087	-0.8298619403481448	0.0	1.3525920686389246	-0.44067543044835494	0.0	1.3286452418342038	-0.36595174116193163	0.0	1.3248790549171294	-0.41359564301437113	0.0	1.3217550818468367	-0.46347004020631694	0.0	1.305577792192336	-0.5279113010554091	0.0	1.2832705987990312	-0.5646064841771359	0.0	1.3923111604181095	-0.45723153393336363	0.0	1.403955406919374	-0.5329113998051821	0.0	1.3584738335192625	-0.5926297968758988	0.0
62	2.0865384615384612	1.3652415489749288	-0.5760175854228233	0.0	1.34721579274686	-0.5770285709509041	0.0	1.37049838136213	-0.6926116984019742	0.0	1.415266833861152	-0.7964820887085591	0.0	1.3821798101637524	-0.8273621749647954	0.0	1.3896730838454283	-0.8219884668480528	0.0	1.4288465855502739	-0.8103743181469129	0.0	1.3835535608144265	-0.5755667698905822	0.0	1.3199969673073013	-0.6762551159360062	0.0	1.2951869010508144	-0.8004585637927727	0.0	1.2479984638337227	-0.8112751535221048	0.0	1.2603090767818357	-0.8169390488888453	0.0	1.3004524293118378	-0.8170034139810196	0.0	1.3526070072337537	-0.4220204780510552	0.0	1.3320185022253204	-0.34603057695847605	0.0	1.3278751708796996	-0.39465718791005294	0.0	1.3187280559248724	-0.442636541633849	0.0	1.2964024840808186	-0.5035296465513379	0.0	1.27075323268565	-0.5320937769260428	0.0	1.3936026813464653	-0.4374457486215831	0.0	1.4069278376217487	-0.5113353252522829	0.0	1.3527458273199273	-0.5644177629942283	0.0
